C:\Users\israe\Dropbox\PhDWork\ExperimentalData/subject1/055/P1S055W01_EMG(MVC)_40ms.mot
nRows=14
nColumns=16

name C:\Users\israe\Dropbox\PhDWork\ExperimentalData/subject1/055/P1S055W01_EMG(MVC)_40ms.mot
datacolumns 16
datarows 14
range 0.0400000000 0.0530000000
endheader
time	BF	ST	VL	VM	RF	TFL	GE	GA	TA	GL	GM	SO	ES	MF	VI_a
        0.0400000000	       -0.0100553897	        0.0110226173	        0.0015350000	        0.0027758925	       -0.0009545403	        0.0112999829	        0.0324473027	       -0.0012614075	       -0.0171860964	       -0.0214291902	        0.0053418980	        0.0060658862	       -0.0585759403	       -0.0572010258	        0.0021554463	
        0.0410000000	       -0.0068986510	        0.0118619593	        0.0018945961	        0.0035162761	       -0.0004380839	        0.0118080235	        0.0344677321	       -0.0006915141	       -0.0154870370	       -0.0188095620	        0.0071880890	        0.0072251650	       -0.0259043205	       -0.0243792395	        0.0027054361	
        0.0420000000	       -0.0037558382	        0.0127080993	        0.0022528184	        0.0042554483	        0.0000764200	        0.0123186653	        0.0364959254	       -0.0001238832	       -0.0137998647	       -0.0162070237	        0.0090478131	        0.0083875870	        0.0066332595	        0.0082882135	        0.0032541333	
        0.0430000000	       -0.0006324004	        0.0135592002	        0.0026089336	        0.0049919158	        0.0005879165	        0.0128306676	        0.0385278487	        0.0004402789	       -0.0121275215	       -0.0136264183	        0.0109185373	        0.0095507689	        0.0389768447	        0.0407343629	        0.0038004247	
        0.0440000000	        0.0024665338	        0.0144136202	        0.0029622489	        0.0057242867	        0.0010954472	        0.0133428511	        0.0405595655	        0.0009998832	       -0.0104727045	       -0.0110722355	        0.0127978447	        0.0107125781	        0.0710675654	        0.0728951064	        0.0043432678	
        0.0450000000	        0.0055360562	        0.0152699470	        0.0033120959	        0.0064512644	        0.0015981436	        0.0138540847	        0.0425871877	        0.0015539669	       -0.0088378902	       -0.0085486295	        0.0146834402	        0.0118710916	        0.1028487135	        0.1047114815	        0.0048816802	
        0.0460000000	        0.0085714241	        0.0161269259	        0.0036578263	        0.0071716353	        0.0020952134	        0.0143633009	        0.0446069558	        0.0021016839	       -0.0072253704	       -0.0060594241	        0.0165731129	        0.0130245334	        0.1342673272	        0.1361307489	        0.0054147308	
        0.0470000000	        0.0115681018	        0.0169833489	        0.0039988145	        0.0078842549	        0.0025859268	        0.0148695194	        0.0466152691	        0.0026422830	       -0.0056372311	       -0.0036080878	        0.0184647314	        0.0141712376	        0.1652753550	        0.1671061425	        0.0059415347	
        0.0480000000	        0.0145218252	        0.0178379933	        0.0043344538	        0.0085880397	        0.0030696123	        0.0153718275	        0.0486085952	        0.0031750950	       -0.0040753344	       -0.0011977155	        0.0203562547	        0.0153096139	        0.1958298285	        0.1975962637	        0.0064612467	
        0.0490000000	        0.0174285683	        0.0186896251	        0.0046641502	        0.0092819759	        0.0035456545	        0.0158693532	        0.0505833984	        0.0036995321	       -0.0025413804	        0.0011689208	        0.0222457410	        0.0164381208	        0.2258924375	        0.2275645269	        0.0069730630	
        0.0500000000	        0.0202845295	        0.0195370412	        0.0049873295	        0.0099651433	        0.0040134947	        0.0163612680	        0.0525361703	        0.0042150796	       -0.0010369738	        0.0034892775	        0.0241313819	        0.0175552462	        0.2554290212	        0.2569786498	        0.0074762364	
        0.0510000000	        0.0230862928	        0.0203791124	        0.0053034467	        0.0106367317	        0.0044726344	        0.0168467903	        0.0544634995	        0.0047212766	        0.0004364027	        0.0057610169	        0.0260115791	        0.0186594814	        0.2844091109	        0.2858102038	        0.0079700892	
        0.0520000000	        0.0258310126	        0.0212147949	        0.0056119863	        0.0112960406	        0.0049226332	        0.0173251605	        0.0563620893	        0.0052176964	        0.0018774628	        0.0079820951	        0.0278850404	        0.0197493050	        0.3128055196	        0.3140340322	        0.0084540134	
        0.0530000000	        0.0285164252	        0.0220431078	        0.0059124717	        0.0119424633	        0.0053630951	        0.0177956376	        0.0582287181	        0.0057039480	        0.0032851468	        0.0101508311	        0.0297507735	        0.0208232040	        0.3405939742	        0.3416273896	        0.0089274675	
